<svg width="61" height="31" viewBox="0 0 61 31" fill="none" xmlns="http://www.w3.org/2000/svg">
<path d="M53.225 19.2179C50.9 19.2179 48.8625 18.4445 47.4875 17.1941C46.1125 18.4445 44.075 19.2179 41.75 19.2179C39.475 19.2179 37.4375 18.4574 36.0625 17.2328C34.6875 18.4574 32.65 19.2179 30.375 19.2179C28.05 19.2179 26.0125 18.4445 24.6375 17.1941C23.2625 18.4445 21.225 19.2179 18.9 19.2179C16.625 19.2179 14.5875 18.4574 13.2125 17.2328C11.8375 18.4703 9.8 19.2179 7.525 19.2179C3.3 19.2179 0 16.6398 0 13.3527V2.00896C0 0.9906 0.8 0.15271 1.8 0.15271C2.8 0.15271 3.6 0.977709 3.6 2.00896C3.6 3.00154 5.325 4.16169 7.5375 4.16169C9.5375 4.16169 11.075 3.27224 11.4125 2.36989C11.4 2.25388 11.4 2.12497 11.4 2.00896C11.4 0.9906 12.2 0.15271 13.2 0.15271H13.2875C14.275 0.15271 15.0875 0.977709 15.0875 2.00896C15.0875 2.12497 15.0875 2.25388 15.075 2.36989C15.4125 3.27224 16.95 4.16169 18.95 4.16169C21.1625 4.16169 22.8875 3.00154 22.8875 2.00896C22.8875 0.9906 23.6875 0.15271 24.6875 0.15271C25.6875 0.15271 26.4875 0.977709 26.4875 2.00896C26.4875 3.00154 28.2125 4.16169 30.425 4.16169C32.425 4.16169 33.9625 3.27224 34.3 2.36989C34.2875 2.25388 34.2875 2.12497 34.2875 2.00896C34.2875 0.9906 35.0875 0.15271 36.0875 0.15271H36.175C37.1625 0.15271 37.975 0.977709 37.975 2.00896C37.975 2.12497 37.975 2.25388 37.9625 2.36989C38.3 3.27224 39.8375 4.16169 41.8375 4.16169C44.05 4.16169 45.775 3.00154 45.775 2.00896C45.775 0.9906 46.575 0.15271 47.575 0.15271C48.5625 0.15271 49.375 0.977709 49.375 2.00896C49.375 3.00154 51.1 4.16169 53.3125 4.16169C55.525 4.16169 57.25 3.00154 57.25 2.00896C57.25 0.9906 58.05 0.15271 59.05 0.15271C60.05 0.15271 60.85 0.977709 60.85 2.00896V13.3527C60.7625 16.6398 57.45 19.2179 53.225 19.2179ZM49.2875 13.3527C49.2875 14.3453 51.0125 15.5054 53.225 15.5054C55.4375 15.5054 57.1625 14.3453 57.1625 13.3527V7.02341C56.025 7.55193 54.675 7.8613 53.225 7.8613C50.9 7.8613 48.8625 7.08786 47.4875 5.83747C46.1125 7.08786 44.075 7.8613 41.75 7.8613C39.475 7.8613 37.4375 7.10076 36.0625 5.87615C34.6875 7.11365 32.65 7.8613 30.375 7.8613C28.05 7.8613 26.0125 7.08786 24.6375 5.83747C23.2625 7.08786 21.225 7.8613 18.9 7.8613C16.625 7.8613 14.5875 7.10076 13.2125 5.87615C11.8375 7.11365 9.8 7.8613 7.525 7.8613C6.075 7.8613 4.725 7.55193 3.5875 7.02341V13.3527C3.5875 14.3453 5.3125 15.5054 7.525 15.5054C9.525 15.5054 11.0625 14.616 11.4 13.7136C11.3875 13.5976 11.3875 13.4687 11.3875 13.3527C11.3875 12.3343 12.1875 11.4965 13.1875 11.4965H13.275C14.2625 11.4965 15.075 12.3215 15.075 13.3527C15.075 13.4687 15.075 13.5976 15.0625 13.7136C15.4 14.616 16.9375 15.5054 18.9375 15.5054C21.15 15.5054 22.875 14.3453 22.875 13.3527C22.875 12.3343 23.675 11.4965 24.675 11.4965C25.675 11.4965 26.475 12.3215 26.475 13.3527C26.475 14.3453 28.2 15.5054 30.4125 15.5054C32.4125 15.5054 33.95 14.616 34.2875 13.7136C34.275 13.5976 34.275 13.4687 34.275 13.3527C34.275 12.3343 35.075 11.4965 36.075 11.4965H36.1625C37.15 11.4965 37.9625 12.3215 37.9625 13.3527C37.9625 13.4687 37.9625 13.5976 37.95 13.7136C38.2875 14.616 39.825 15.5054 41.825 15.5054C44.0375 15.5054 45.7625 14.3453 45.7625 13.3527C45.7625 12.3343 46.5625 11.4965 47.5625 11.4965C48.4875 11.5093 49.2875 12.3343 49.2875 13.3527Z" fill="#2D527C"/>
<path d="M41.7625 30.3555C39.4625 30.3555 37.4375 29.5949 36.075 28.3703C34.7 29.5949 32.675 30.3555 30.3875 30.3555C28.0625 30.3555 26.025 29.582 24.65 28.3316C23.275 29.582 21.2375 30.3555 18.9125 30.3555C14.6875 30.3555 11.3875 27.7773 11.3875 24.4902C11.3875 23.4719 12.1875 22.634 13.1875 22.634H13.275C14.2625 22.634 15.075 23.459 15.075 24.4902C15.075 24.5933 15.0625 24.7094 15.05 24.8125C15.3625 25.7277 16.95 26.6558 18.9375 26.6558C21.15 26.6558 22.875 25.4957 22.875 24.5031C22.875 23.4848 23.675 22.6469 24.675 22.6469C25.675 22.6469 26.475 23.4719 26.475 24.5031C26.475 25.4957 28.2 26.6558 30.4125 26.6558C32.375 26.6558 33.9375 25.7535 34.275 24.8512C34.2625 24.7351 34.2625 24.6191 34.2625 24.4902C34.2625 23.4719 35.0625 22.634 36.0625 22.634H36.15C37.1375 22.634 37.95 23.459 37.95 24.4902C37.95 24.6062 37.95 24.7223 37.9375 24.8512C38.275 25.7535 39.85 26.6558 41.8 26.6558C44.0125 26.6558 45.7375 25.4957 45.7375 24.5031C45.7375 23.4848 46.5375 22.6469 47.5375 22.6469C48.525 22.6469 49.3375 23.4719 49.3375 24.5031C49.2875 27.7902 45.9875 30.3555 41.7625 30.3555Z" fill="#2D527C"/>
</svg>
